<svg xmlns="http://www.w3.org/2000/svg" viewBox="0 0 1000 1000">
  <defs>
    <style>
      .a {
        fill: #eec1d2;
      }

      .b {
        fill: #fff;
      }
    </style>
  </defs>
  <path class="a" d="M500,500,0,0H76.92Q345.83,303.21,500,500Z"/>
  <path class="a" d="M500,500Q370.67,286.06,153.85,0h76.92Q397.39,272,500,500Z"/>
  <path class="a" d="M500,500Q425.63,261.32,307.69,0h76.93Q454.94,254.1,500,500Z"/>
  <path class="a" d="M500,500Q484.91,250.46,461.54,0h76.92Q515.09,250.46,500,500Z"/>
  <path class="a" d="M500,500Q545.06,254.09,615.38,0h76.93Q574.38,261.32,500,500Z"/>
  <path class="a" d="M500,500Q602.6,272,769.23,0h76.92Q629.34,286,500,500Z"/>
  <path class="a" d="M500,500Q654.18,303.2,923.08,0H1000Z"/>
  <path class="a" d="M500,500Q696.8,345.81,1000,76.92v76.93Q713.95,370.66,500,500Z"/>
  <path class="a" d="M500,500q228-102.6,500-269.23v76.92Q738.69,425.62,500,500Z"/>
  <path class="a" d="M500,500q245.91-45.06,500-115.38v76.92Q749.55,484.91,500,500Z"/>
  <path class="a" d="M500,500q249.54,15.09,500,38.46v76.92Q745.9,545.06,500,500Z"/>
  <path class="a" d="M500,500q238.68,74.37,500,192.31v76.92Q728,602.61,500,500Z"/>
  <path class="a" d="M500,500q213.94,129.33,500,346.15v76.93Q696.79,654.17,500,500Z"/>
  <path class="a" d="M500,500l500,500H923.08Q654.17,696.79,500,500Z"/>
  <path class="a" d="M500,500q129.33,213.94,346.15,500H769.23Q602.61,728,500,500Z"/>
  <path class="a" d="M500,500q74.37,238.68,192.31,500H615.38Q545.06,745.9,500,500Z"/>
  <path class="a" d="M500,500q15.09,249.54,38.46,500H461.54Q484.91,749.55,500,500Z"/>
  <path class="a" d="M500,500q-45.06,245.91-115.38,500H307.69Q425.62,738.69,500,500Z"/>
  <path class="a" d="M500,500Q397.4,728,230.77,1000H153.85Q370.66,713.95,500,500Z"/>
  <path class="a" d="M500,500Q345.81,696.8,76.92,1000H0Z"/>
  <path class="a" d="M500,500Q303.2,654.18,0,923.08V846.15Q286,629.34,500,500Z"/>
  <path class="a" d="M500,500Q272,602.6,0,769.23V692.31Q261.32,574.38,500,500Z"/>
  <path class="a" d="M500,500Q254.09,545.06,0,615.38V538.46Q250.46,515.09,500,500Z"/>
  <path class="a" d="M500,500Q250.46,484.91,0,461.54V384.62Q254.1,454.94,500,500Z"/>
  <path class="a" d="M500,500Q261.32,425.63,0,307.69V230.77Q272,397.39,500,500Z"/>
  <path class="a" d="M500,500Q286.06,370.67,0,153.85V76.92Q303.21,345.83,500,500Z"/>
  <path class="b" d="M500,500Q345.81,303.2,76.92,0h76.93Q370.66,286,500,500Z"/>
  <path class="b" d="M500,500Q397.4,272,230.77,0h76.92Q425.62,261.32,500,500Z"/>
  <path class="b" d="M500,500Q454.94,254.09,384.62,0h76.92Q484.91,250.46,500,500Z"/>
  <path class="b" d="M500,500Q515.09,250.46,538.46,0h76.92Q545.06,254.1,500,500Z"/>
  <path class="b" d="M500,500Q574.37,261.32,692.31,0h76.92Q602.61,272,500,500Z"/>
  <path class="b" d="M500,500Q629.33,286.06,846.15,0h76.93Q654.17,303.21,500,500Z"/>
  <path class="b" d="M500,500,1000,0V76.92Q696.79,345.83,500,500Z"/>
  <path class="b" d="M500,500q213.94-129.33,500-346.15v76.92Q728,397.39,500,500Z"/>
  <path class="b" d="M500,500q238.68-74.37,500-192.31v76.93Q745.9,454.94,500,500Z"/>
  <path class="b" d="M500,500q249.54-15.09,500-38.46v76.92Q749.55,515.09,500,500Z"/>
  <path class="b" d="M500,500q245.91,45.06,500,115.38v76.93Q738.69,574.38,500,500Z"/>
  <path class="b" d="M500,500q228,102.6,500,269.23v76.92Q713.95,629.34,500,500Z"/>
  <path class="b" d="M500,500q196.8,154.18,500,423.08V1000Z"/>
  <path class="b" d="M500,500q154.18,196.8,423.08,500H846.15Q629.34,713.95,500,500Z"/>
  <path class="b" d="M500,500q102.6,228,269.23,500H692.31Q574.38,738.69,500,500Z"/>
  <path class="b" d="M500,500q45.06,245.91,115.38,500H538.46Q515.09,749.55,500,500Z"/>
  <path class="b" d="M500,500q-15.09,249.54-38.46,500H384.62Q454.94,745.9,500,500Z"/>
  <path class="b" d="M500,500q-74.37,238.68-192.31,500H230.77Q397.39,728,500,500Z"/>
  <path class="b" d="M500,500Q370.67,713.95,153.85,1000H76.92Q345.83,696.79,500,500Z"/>
  <path class="b" d="M500,500,0,1000V923.08Q303.21,654.17,500,500Z"/>
  <path class="b" d="M500,500Q286.06,629.33,0,846.15V769.23Q272,602.61,500,500Z"/>
  <path class="b" d="M500,500Q261.32,574.37,0,692.31V615.38Q254.1,545.06,500,500Z"/>
  <path class="b" d="M500,500Q250.46,515.09,0,538.46V461.54Q250.46,484.91,500,500Z"/>
  <path class="b" d="M500,500Q254.09,454.94,0,384.62V307.69Q261.32,425.62,500,500Z"/>
  <path class="b" d="M500,500Q272,397.4,0,230.77V153.85Q286,370.66,500,500Z"/>
  <path class="b" d="M500,500Q303.2,345.81,0,76.92V0Z"/>
</svg>
